<svg width="20" height="20" viewBox="0 0 20 20" fill="none" xmlns="http://www.w3.org/2000/svg">
<path d="M19.8257 3.96903C19.7562 3.88583 19.6692 3.81891 19.571 3.773C19.4728 3.72709 19.3657 3.7033 19.2573 3.70332H4.32177L3.75887 0.60827C3.72786 0.43761 3.63795 0.283244 3.50479 0.172085C3.37164 0.0609258 3.20369 2.50689e-05 3.03024 0H0.740664C0.544227 0 0.355837 0.0780339 0.216935 0.216935C0.0780339 0.355837 0 0.544227 0 0.740664C0 0.9371 0.0780339 1.12549 0.216935 1.26439C0.355837 1.40329 0.544227 1.48133 0.740664 1.48133H2.40716L4.77358 14.4698C4.84328 14.855 5.01352 15.2149 5.26704 15.5132C4.91712 15.84 4.66456 16.2574 4.53736 16.719C4.41016 17.1806 4.41329 17.6684 4.54641 18.1284C4.67952 18.5883 4.93742 19.0024 5.29151 19.3247C5.6456 19.647 6.08203 19.865 6.55243 19.9544C7.02282 20.0438 7.50879 20.0012 7.95644 19.8313C8.40409 19.6614 8.79594 19.3708 9.08854 18.9918C9.38113 18.6128 9.56304 18.1601 9.61408 17.684C9.66513 17.208 9.58332 16.727 9.37773 16.2946H13.5828C13.4171 16.6415 13.3314 17.0212 13.3319 17.4056C13.3319 17.9183 13.484 18.4195 13.7688 18.8458C14.0537 19.2721 14.4585 19.6044 14.9322 19.8006C15.4059 19.9968 15.9271 20.0481 16.43 19.9481C16.9329 19.8481 17.3948 19.6012 17.7573 19.2386C18.1199 18.8761 18.3668 18.4142 18.4668 17.9113C18.5668 17.4085 18.5155 16.8872 18.3193 16.4136C18.1231 15.9399 17.7908 15.535 17.3645 15.2502C16.9382 14.9653 16.437 14.8133 15.9243 14.8133H6.95946C6.78601 14.8132 6.61806 14.7523 6.48491 14.6412C6.35176 14.53 6.26184 14.3757 6.23083 14.205L5.93734 12.5913H16.677C17.1973 12.5912 17.7012 12.4085 18.1006 12.075C18.5001 11.7415 18.7698 11.2785 18.8629 10.7665L19.9887 4.57638C20.0077 4.46939 20.003 4.35951 19.9748 4.25455C19.9467 4.14959 19.8958 4.05211 19.8257 3.96903ZM8.1473 17.4056C8.1473 17.6253 8.08214 17.8401 7.96006 18.0228C7.83799 18.2055 7.66447 18.3479 7.46146 18.432C7.25846 18.5161 7.03507 18.5381 6.81956 18.4952C6.60405 18.4524 6.40609 18.3466 6.25071 18.1912C6.09534 18.0358 5.98952 17.8379 5.94666 17.6223C5.90379 17.4068 5.92579 17.1834 6.00988 16.9804C6.09397 16.7774 6.23637 16.6039 6.41907 16.4818C6.60177 16.3598 6.81657 16.2946 7.0363 16.2946C7.33096 16.2946 7.61354 16.4116 7.8219 16.62C8.03025 16.8284 8.1473 17.1109 8.1473 17.4056ZM17.0353 17.4056C17.0353 17.6253 16.9701 17.8401 16.848 18.0228C16.7259 18.2055 16.5524 18.3479 16.3494 18.432C16.1464 18.5161 15.923 18.5381 15.7075 18.4952C15.492 18.4524 15.2941 18.3466 15.1387 18.1912C14.9833 18.0358 14.8775 17.8379 14.8346 17.6223C14.7918 17.4068 14.8138 17.1834 14.8978 16.9804C14.9819 16.7774 15.1243 16.6039 15.307 16.4818C15.4897 16.3598 15.7045 16.2946 15.9243 16.2946C16.2189 16.2946 16.5015 16.4116 16.7099 16.62C16.9182 16.8284 17.0353 17.1109 17.0353 17.4056ZM17.4056 10.5017C17.3745 10.6728 17.2842 10.8275 17.1505 10.9388C17.0167 11.05 16.8481 11.1106 16.6742 11.11H5.66793L4.59119 5.18465H18.3694L17.4056 10.5017Z" fill="#1E1E1E" style="fill:#1E1E1E;fill:color(display-p3 0.1176 0.1176 0.1176);fill-opacity:1;"/>
</svg>
